<svg xmlns="http://www.w3.org/2000/svg" width="24" height="24" viewBox="0 0 24 24"><path fill="#1877F3" d="M24 12.073C24 5.405 18.627 0 12 0S0 5.405 0 12.073c0 6.019 4.388 10.995 10.125 11.854v-8.385H7.078v-3.47h3.047V9.413c0-3.007 1.792-4.669 4.533-4.669 1.312 0 2.686.235 2.686.235v2.953h-1.513c-1.491 0-1.953.926-1.953 1.874v2.25h3.328l-.532 3.47h-2.796v8.385C19.612 23.068 24 18.092 24 12.073z"/><path fill="#FFF" d="M16.671 15.543l.532-3.47h-3.328v-2.25c0-.948.462-1.874 1.953-1.874h1.513V5.996s-1.374-.235-2.686-.235c-2.741 0-4.533 1.662-4.533 4.669v2.084H7.078v3.47h3.047v8.385a12.07 12.07 0 0 0 3.75 0v-8.385h2.796z"/></svg>