<svg xmlns="http://www.w3.org/2000/svg" width="24" height="24" viewBox="0 0 24 24"><defs><radialGradient id="a" cx="1.464" cy="0.464" r="1.5" gradientTransform="matrix(.69 0 0 .69 .15 .15)" gradientUnits="userSpaceOnUse"><stop offset="0%" stop-color="#fdf497"/><stop offset="45%" stop-color="#fdf497"/><stop offset="60%" stop-color="#fd5949"/><stop offset="90%" stop-color="#d6249f"/><stop offset="100%" stop-color="#285AEB"/></radialGradient></defs><rect width="24" height="24" rx="5" fill="url(#a)"/><path fill="#fff" d="M12 7.2A4.8 4.8 0 1 0 12 16.8A4.8 4.8 0 1 0 12 7.2zm0 7.8a3 3 0 1 1 0-6a3 3 0 0 1 0 6zm6.406-8.406a1.12 1.12 0 1 1-2.24 0a1.12 1.12 0 0 1 2.24 0zM12 5.6a6.4 6.4 0 1 1 0 12.8a6.4 6.4 0 0 1 0-12.8zm0 10.4a4 4 0 1 0 0-8a4 4 0 0 0 0 8zm6.406-8.406a2.32 2.32 0 1 0-4.64 0a2.32 2.32 0 0 0 4.64 0z"/></svg>