<svg xmlns="http://www.w3.org/2000/svg" width="24" height="24" viewBox="0 0 24 24"><path fill="#0077B5" d="M22.23 0H1.77C.792 0 0 .774 0 1.729v20.542C0 23.226.792 24 1.77 24h20.46C23.208 24 24 23.226 24 22.271V1.729C24 .774 23.208 0 22.23 0zM7.12 20.452H3.56V9h3.56v11.452zM5.34 7.633a2.07 2.07 0 1 1 0-4.14a2.07 2.07 0 0 1 0 4.14zM20.452 20.452h-3.56v-5.605c0-1.336-.025-3.057-1.865-3.057c-1.867 0-2.153 1.454-2.153 2.957v5.705h-3.56V9h3.418v1.561h.049c.476-.899 1.637-1.847 3.37-1.847c3.602 0 4.267 2.37 4.267 5.455v6.283z"/></svg>